# xmcd CD database file
#
# Track frame offsets:
#	150
#	25481
#	61496
#	89162
#	110280
#	132398
#	150933
#	193376
#	221934
#
# Disc length: 3291 seconds
#
# Revision: 1
# Processed by: cddbd v1.5.2PL0 Copyright (c) Steve Scherf et al.
# Submitted via: CDex 1.70beta2
#
DISCID=880cd909
DTITLE=Oscar Peterson - The Stratford Shakespearean Festival - Kind Of Peterson CD-1
DYEAR=1956
DGENRE=Jazz
TTITLE0=How About You (Laine/Freed)
TTITLE1=Love You Madly (Ellington)
TTITLE2=Falling In Love With Love (Rodgers/Hart)
TTITLE3=Flamingo (Grouya/Anderson)
TTITLE4=Swinging On A Star (Burke/Van Heusen)
TTITLE5=52nd Street Theme (Monk)
TTITLE6=How High The Moon (Hamilton/Lewis)
TTITLE7=Gypsy In My Soul (Boland/Fafee)
TTITLE8=Noreen's Nocturne (Peterson)
EXTD=YEAR: 1956
EXTT0=
EXTT1=
EXTT2=
EXTT3=
EXTT4=
EXTT5=
EXTT6=
EXTT7=
EXTT8=
PLAYORDER=
